<svg width="353" height="170" viewBox="0 0 353 170" fill="none" xmlns="http://www.w3.org/2000/svg">
<g clip-path="url(#clip0_274_9)">
<path d="M85.4321 102.724C84.3185 106.204 82.3698 109.684 82.2306 113.163C81.9522 130.006 81.9523 146.987 82.0915 163.969C82.2306 170.372 85.2928 171.763 90.5821 167.727C102.97 158.123 116.193 150.606 131.226 145.874C133.035 145.317 134.288 142.533 135.68 140.863C133.453 140.584 130.669 139.471 128.86 140.306C117.028 145.874 105.336 151.859 92.8092 157.983C93.7835 153.39 94.6187 148.518 96.0106 143.925C106.728 109.266 126.911 83.7938 164.632 77.391C179.386 74.8855 194.558 75.3031 209.591 73.772C222.396 72.3801 235.619 71.6841 247.729 67.9259C271.67 60.5487 278.49 41.4793 265.545 19.9045C261.37 12.8057 255.106 6.95961 249.539 0.835142C248.564 -0.278398 246.059 0.139192 244.11 0C244.667 1.67031 244.945 3.89738 246.059 5.01092C250.095 9.18669 254.689 12.8057 258.447 17.1207C272.366 32.8494 268.051 54.4242 248.425 61.8014C237.986 65.6988 226.433 66.9516 215.297 68.0651C198.316 69.8746 180.917 69.1786 164.075 71.8233C129.277 77.1126 107.424 98.8266 94.3403 130.563C92.2524 135.573 90.4429 140.724 87.6591 147.822C87.6591 131.537 87.6591 117.339 87.6591 103.142C87.1023 103.002 86.2672 102.863 85.4321 102.724Z" fill="black"/>
</g>
<defs>
<clipPath id="clip0_274_9">
<rect width="170" height="353" fill="white" transform="translate(353) rotate(90)"/>
</clipPath>
</defs>
</svg>
