<svg width="170" height="353" viewBox="0 0 170 353" fill="none" xmlns="http://www.w3.org/2000/svg">
<g clip-path="url(#clip0_262_2)">
<path d="M57.6291 220.862C31.8035 204.534 32.4831 165.753 52.362 135.138C84.644 151.466 113.698 141.091 141.902 124.422C153.965 117.278 163.65 107.243 168.407 93.466C173.165 79.8589 167.048 68.2929 152.946 65.0613C130.518 59.9586 110.64 67.6126 93.4791 80.7094C79.8867 91.0847 68.6729 104.522 56.6096 116.598C54.7407 118.469 53.2115 120.85 51.0027 123.401C41.9978 109.794 42.8473 96.0173 47.9445 82.4102C61.0272 47.202 86.0033 23.0495 119.814 7.40135C122.703 6.04064 125.251 4.33975 128.14 2.63887C127.97 1.78843 127.8 1.10809 127.46 0.257647C125.081 0.257647 122.363 -0.422696 120.324 0.427745C81.7557 17.2665 53.7212 44.6507 39.6191 84.6214C34.6918 98.3985 36.7307 112.346 44.3765 125.443C45.9056 127.994 45.3959 132.926 44.0366 135.818C34.8618 154.017 28.2354 172.557 32.653 193.478C35.5414 207.425 43.0172 218.311 54.231 227.155C32.8229 259.132 14.643 292.299 11.075 331.76C8.18659 318.833 5.46813 305.906 2.07002 290.938C-4.21648 303.695 4.9584 343.836 14.3032 352C29.4248 339.243 44.3764 326.487 59.1582 313.9C53.2115 309.988 53.2115 309.988 19.5703 336.862C18.0411 317.812 23.1383 300.633 30.4442 284.305C37.7501 267.806 47.6047 252.669 55.93 236.68C58.6485 231.408 61.7068 231.748 66.804 233.789C98.5763 246.545 127.63 240.252 154.305 220.352C162.801 214.059 167.728 205.214 167.218 193.988C166.708 182.592 160.592 175.278 149.208 174.088C125.761 171.707 105.203 179.531 87.1926 193.988C76.4886 201.982 67.3137 211.677 57.6291 220.862ZM55.7601 128.334C68.3331 108.774 83.4547 93.1258 102.824 82.0701C115.907 74.5862 129.669 69.1434 145.3 69.9938C161.101 70.8442 167.388 81.3897 160.422 95.507C159.402 97.5481 158.213 99.4191 157.024 101.29C143.431 120.17 124.062 129.695 102.144 134.797C86.3431 138.199 70.7118 138.369 55.7601 128.334ZM62.3864 224.434C73.7701 214.058 83.4547 204.023 94.4985 195.519C108.94 184.293 125.591 178.51 144.281 180.551C158.213 182.082 163.65 191.097 157.703 203.683C156.344 206.405 154.475 208.956 152.436 211.337C132.897 233.449 92.2898 240.252 62.3864 224.434Z" fill="black"/>
</g>
<defs>
<clipPath id="clip0_262_2">
<rect width="170" height="353" fill="white"/>
</clipPath>
</defs>
</svg>
