<svg width="353" height="170" viewBox="0 0 353 170" fill="none" xmlns="http://www.w3.org/2000/svg">
<g clip-path="url(#clip0_273_5)">
<path d="M304.291 31.7677C306.872 50.9401 302.355 67.3734 291.548 81.8735C277.997 100.079 261.06 113.452 237.67 116.352C232.992 116.996 227.991 116.513 223.313 115.707C212.666 113.774 207.021 106.524 209.602 96.0515C212.021 85.7403 216.699 76.0735 220.409 66.0846C222.829 59.3179 226.701 52.7123 227.346 45.7844C228.959 29.8343 215.247 18.5565 199.439 21.4565C183.308 24.3565 170.726 33.5399 160.724 45.7844C150.078 58.8345 140.399 72.6902 131.366 86.868C111.04 118.768 98.2969 132.946 70.0675 154.857C81.1979 152.118 92.1671 149.057 103.298 146.802C106.524 146.157 110.234 147.446 113.783 147.93C110.879 149.702 108.137 152.28 104.911 153.085C89.4248 156.307 73.9389 159.046 58.453 161.785C55.5494 162.269 52.3233 161.785 47 161.785C53.6138 150.83 60.2275 141.968 64.2603 132.141C68.1317 122.474 69.2609 111.679 71.6806 100.563C79.1009 110.39 76.6812 123.118 64.4216 149.541C72.1645 143.902 81.0366 139.23 87.1664 132.302C101.039 116.352 113.621 99.4348 126.688 82.6791C139.754 65.7623 151.852 47.879 166.048 32.09C177.339 19.6843 192.341 12.7565 210.085 15.6565C227.507 18.5565 237.831 33.3788 233.153 50.2956C230.895 58.3512 226.701 66.0846 223.313 73.8179C220.893 79.4569 217.828 84.7736 215.893 90.7347C212.183 102.818 218.635 111.357 231.217 110.39C269.771 107.49 300.581 71.8847 298.484 41.7567C298.161 38.3733 296.71 33.3788 304.291 31.7677Z" fill="black"/>
</g>
<defs>
<clipPath id="clip0_273_5">
<rect width="170" height="353" fill="white" transform="translate(353) rotate(90)"/>
</clipPath>
</defs>
</svg>
