<svg width="353" height="170" viewBox="0 0 353 170" fill="none" xmlns="http://www.w3.org/2000/svg">
<g clip-path="url(#clip0_274_9)">
<path d="M166.432 102.724C165.319 106.204 163.37 109.684 163.231 113.163C162.952 130.006 162.952 146.987 163.091 163.969C163.231 170.372 166.293 171.763 171.582 167.727C183.97 158.123 197.193 150.606 212.226 145.874C214.035 145.317 215.288 142.533 216.68 140.863C214.453 140.584 211.669 139.471 209.86 140.306C198.028 145.874 186.336 151.859 173.809 157.983C174.784 153.39 175.619 148.518 177.011 143.925C187.728 109.266 207.911 83.7938 245.632 77.391C260.386 74.8855 275.558 75.3031 290.591 73.772C303.396 72.3801 316.619 71.6841 328.729 67.9259C352.67 60.5487 359.49 41.4793 346.545 19.9045C342.37 12.8057 336.106 6.95961 330.538 0.835142C329.564 -0.278398 327.059 0.139192 325.11 0C325.667 1.67031 325.945 3.89738 327.059 5.01092C331.095 9.18669 335.689 12.8057 339.447 17.1207C353.366 32.8494 349.051 54.4242 329.425 61.8014C318.986 65.6988 307.433 66.9516 296.297 68.0651C279.316 69.8746 261.917 69.1786 245.075 71.8233C210.277 77.1126 188.424 98.8266 175.34 130.562C173.252 135.573 171.443 140.724 168.659 147.822C168.659 131.537 168.659 117.339 168.659 103.142C168.102 103.002 167.267 102.863 166.432 102.724Z" fill="black"/>
</g>
<defs>
<clipPath id="clip0_274_9">
<rect width="170" height="353" fill="white" transform="translate(353) rotate(90)"/>
</clipPath>
</defs>
</svg>
