<svg width="353" height="170" viewBox="0 0 353 170" fill="none" xmlns="http://www.w3.org/2000/svg">
<g clip-path="url(#clip0_263_3)">
<path d="M308.879 15.288C314.803 32.2296 314.963 48.0525 305.997 62.4368C302.634 67.8709 296.71 73.305 290.786 75.3828C278.136 79.6981 267.569 67.8709 269.971 53.3267C272.372 37.9834 280.698 26.4759 293.027 17.3658C294.468 16.247 296.069 15.2881 298.151 13.8496C287.423 6.17795 276.375 6.97705 267.249 13.2103C257.321 19.923 248.195 28.5536 240.829 37.9834C226.099 56.5232 213.289 76.5016 198.559 95.0414C177.103 122.212 150.044 142.51 118.661 157.374C115.619 158.812 112.416 160.251 109.374 161.849C109.054 162.009 108.734 162.488 108.573 164.886C119.942 163.287 131.15 161.689 142.518 160.251C144.119 160.091 145.881 160.091 147.482 160.091C146.841 161.849 146.681 164.406 145.56 165.365C143.639 166.963 140.917 168.242 138.355 168.402C125.065 169.201 111.776 169.84 98.4862 170C95.6041 170 92.8821 167.762 90 166.644C91.2809 164.246 92.722 161.849 94.0029 159.451C97.8457 152.899 102.489 146.506 105.531 139.473C108.573 132.601 110.335 125.089 114.338 116.778C115.298 119.335 117.54 122.212 116.9 124.29C114.658 132.441 111.616 140.272 108.734 148.264C107.933 150.661 106.332 152.739 105.051 154.976C105.531 155.616 106.012 156.415 106.492 157.054C118.981 150.341 131.95 144.428 143.639 136.596C175.502 115.499 199.039 86.5706 220.335 55.2447C229.781 41.4996 240.189 28.0741 252.038 16.4068C263.086 5.53861 277.816 -1.97319 293.347 4.26004C302.954 8.09587 311.28 8.09585 320.887 7.13689C338.02 5.3788 350.349 14.3291 352.751 28.234C354.512 38.1432 346.666 55.884 338.02 60.9984C336.739 61.7975 334.818 61.1582 333.216 61.318C333.537 59.7198 333.216 57.642 334.017 56.3634C337.379 51.8883 342.023 48.3721 344.425 43.4175C352.59 26.7956 343.464 12.4111 325.05 12.4111C319.607 12.8906 314.483 14.3291 308.879 15.288ZM302.314 19.7632C287.904 26.3161 276.856 41.1799 275.895 54.7651C275.414 60.5189 275.735 66.2727 281.819 69.3094C288.064 72.3461 293.187 69.1496 297.511 64.9941C307.598 55.2447 309.839 34.627 302.314 19.7632Z" fill="black"/>
</g>
<defs>
<clipPath id="clip0_263_3">
<rect width="170" height="353" fill="white" transform="translate(353) rotate(90)"/>
</clipPath>
</defs>
</svg>
