<svg width="425" height="84" viewBox="0 0 425 84" fill="none" xmlns="http://www.w3.org/2000/svg">
<g clip-path="url(#clip0_277_13)">
<path d="M330.754 0.000176994C340.409 3.43558 346.444 11.3519 351.54 20.6126C356.502 29.5745 361.732 38.8352 368.035 46.6022C376.886 57.6553 387.078 57.8046 397.672 48.6933C407.596 40.0301 414.033 28.529 418.994 15.8329C419.933 13.443 421.14 11.2026 422.213 8.81277C422.883 8.81277 423.688 8.9621 424.359 8.9621C424.493 11.0532 425.431 13.5924 424.761 15.3848C419.665 28.9771 413.228 41.8225 402.902 51.5313C386.809 66.7666 368.974 63.4805 357.709 43.3162C353.686 35.9973 350.333 27.9315 346.176 20.6126C335.85 2.53937 322.439 1.04573 309.7 17.1772C302.592 25.9898 297.228 36.5947 290.523 45.706C285.963 51.9794 280.733 58.1034 274.698 62.5844C263.568 70.9489 250.291 68.2603 241.709 56.7591C237.686 51.2326 234.735 44.6605 231.114 38.8352C226.957 32.1138 223.068 24.9443 218.106 19.2684C210.999 11.2026 202.684 11.352 195.845 19.7165C190.883 25.9898 187.128 33.458 183.105 40.4782C179.887 46.1541 177.205 52.2781 173.718 57.6553C160.71 77.6703 144.081 79.7614 127.72 62.8831C119.406 54.3692 112.298 44.2124 104.52 35.1011C99.5582 29.4252 94.7305 23.4506 89.0981 18.6709C81.0518 11.9494 71.9328 11.5013 63.4842 18.0734C57.4495 22.7037 51.5489 27.7822 46.5871 33.7568C34.92 47.6478 23.7893 62.1362 12.7928 77.8196C23.387 72.5918 34.1154 67.5135 44.7096 62.2857C45.246 63.0325 45.7824 63.9287 46.3188 64.6755C44.4414 66.916 42.8321 70.0526 40.4182 71.0982C29.4217 75.7285 18.4252 80.2095 7.02631 83.6449C0.186992 85.736 -0.617624 83.4956 0.321105 75.2805C1.66215 63.9287 2.33267 52.5769 3.53961 41.2251C3.80782 38.6859 4.88064 36.4454 5.68527 34.0555C6.7581 34.3543 7.96503 34.6531 9.03787 34.9518C8.50145 47.0504 7.83091 59.2984 7.29449 71.9944C13.1951 65.5717 19.0957 59.4477 24.7281 52.8757C33.9812 42.1213 42.1616 30.172 52.2194 20.3139C70.3235 2.39001 85.3432 3.58494 102.374 23.3012C112.566 35.1011 121.685 48.0959 132.414 59.2983C146.226 73.7868 160.039 71.2476 170.365 53.473C174.925 45.5567 178.546 37.0429 182.971 28.9771C185.385 24.4962 187.933 20.0152 191.017 16.2811C200.405 4.63056 212.876 4.03304 222.532 15.3848C227.628 21.3594 231.517 28.8277 235.674 35.8479C237.82 39.2833 239.161 43.3162 241.172 46.901C250.962 64.6755 266.25 66.916 279.526 52.2781C284.756 46.6022 289.047 39.7314 293.473 33.3087C295.753 30.0226 297.764 26.4379 299.91 22.8531C306.347 12.3975 313.991 3.7343 325.524 0.448259C327.133 0.000162594 329.011 0.000177164 330.754 0.000176994Z" fill="black"/>
</g>
<defs>
<clipPath id="clip0_277_13">
<rect width="425" height="84" fill="white"/>
</clipPath>
</defs>
</svg>
