<svg width="353" height="170" viewBox="0 0 353 170" fill="none" xmlns="http://www.w3.org/2000/svg">
<g clip-path="url(#clip0_272_2)">
<path d="M33.2039 156.905C56.989 146.167 74.2477 128.463 89.6209 108.727C106.88 86.3802 122.978 63.1622 141.252 41.5405C151.984 28.7706 165.327 18.0322 178.38 7.43904C185.922 1.34432 195.639 -1.12257 205.646 0.473664C223.775 3.52103 231.751 14.9849 225.08 32.1082C220.294 44.4427 212.027 55.4713 205.646 67.2254C201.875 74.0457 197.959 81.011 195.929 88.5569C194.333 94.6516 198.539 97.699 204.631 95.2321C210.287 92.9103 215.798 89.5727 220.584 85.6546C229.866 77.9637 238.278 69.1118 247.85 61.8562C253.361 57.6479 260.322 54.8908 267.139 52.569C273.23 50.3923 279.757 51.1179 284.398 56.487C289.184 61.8562 290.779 68.6765 287.298 74.6261C281.642 84.6388 274.535 93.781 268.154 103.358C264.383 108.873 260.322 114.387 257.567 120.482C256.407 122.949 256.842 128.318 258.582 129.624C260.757 131.365 265.543 131.365 268.299 130.059C274.39 127.157 279.757 122.949 285.558 119.466C288.458 117.725 291.649 116.418 296 114.387C295.42 117.579 295.71 119.176 295.13 119.611C285.993 125.415 277.146 131.655 267.429 136.154C263.948 137.75 256.697 136.879 254.376 134.267C251.475 130.93 249.735 123.819 251.33 120.046C254.811 111.775 260.612 104.519 265.979 97.1185C269.314 92.4749 273.52 88.2667 277.001 83.6231C279.321 80.5757 282.077 77.093 282.512 73.6103C283.092 69.2569 282.802 63.3073 280.192 60.5502C277.871 58.0833 271.2 56.7773 267.864 58.3735C259.017 62.5818 250.605 67.9509 242.919 73.7554C235.232 79.5599 228.851 86.9607 221.454 93.2005C217.973 96.1027 213.767 98.1343 209.562 99.8757C204.34 101.907 198.684 103.068 194.043 98.5696C189.112 93.7809 188.532 87.5411 191.143 81.7366C194.478 74.3359 199.264 67.6607 203.47 60.6953C208.836 51.8435 214.783 43.427 219.569 34.1398C223.194 27.0293 224.21 19.0481 218.263 12.3729C212.172 5.4075 203.615 5.40745 195.494 7.1488C179.975 10.6315 167.503 19.6285 157.785 31.3826C140.382 52.1337 123.703 73.3201 107.46 94.9418C87.8806 120.917 67.8663 146.167 38.1349 162.129C48.4321 164.596 68.3014 158.211 76.7132 150.23C78.0185 149.069 80.1939 148.633 81.9343 147.908C81.4992 150.085 81.7893 152.842 80.629 154.148C72.0722 163.725 60.3247 166.772 48.4322 168.804C42.3409 169.82 35.9595 170.11 29.7232 169.965C27.1126 169.965 22.6166 168.949 22.1815 167.498C21.4564 165.031 23.0517 161.694 24.357 159.082C29.2881 149.214 34.6542 139.636 39.5853 129.769C40.4554 127.882 40.1654 125.415 40.8906 123.529C41.7608 121.497 43.211 119.901 44.3713 118.015C45.2414 119.901 46.9818 122.223 46.5467 123.674C43.9362 132.091 41.0355 140.362 37.8449 148.633C36.6846 151.826 34.7993 154.293 33.2039 156.905Z" fill="black"/>
</g>
<defs>
<clipPath id="clip0_272_2">
<rect width="170" height="353" fill="white" transform="translate(353) rotate(90)"/>
</clipPath>
</defs>
</svg>
